<mxfile host="app.diagrams.net" modified="2024-07-04T14:07:16.152Z" agent="Mozilla/5.0 (Windows NT 10.0; Win64; x64) AppleWebKit/537.36 (KHTML, like Gecko) Chrome/126.0.0.0 Safari/537.36" etag="YicjNxY_576_WzBN6bLs" version="24.6.4" type="google">
  <diagram id="C5RBs43oDa-KdzZeNtuy" name="Page-1">
    <mxGraphModel grid="1" page="1" gridSize="10" guides="1" tooltips="1" connect="1" arrows="1" fold="1" pageScale="1" pageWidth="827" pageHeight="1169" math="0" shadow="0">
      <root>
        <mxCell id="WIyWlLk6GJQsqaUBKTNV-0" />
        <mxCell id="WIyWlLk6GJQsqaUBKTNV-1" parent="WIyWlLk6GJQsqaUBKTNV-0" />
        <mxCell id="9xBo_LbcZeyq5_pHZobQ-45" value="" style="edgeStyle=orthogonalEdgeStyle;rounded=0;orthogonalLoop=1;jettySize=auto;html=1;" edge="1" parent="WIyWlLk6GJQsqaUBKTNV-1" source="9xBo_LbcZeyq5_pHZobQ-0" target="9xBo_LbcZeyq5_pHZobQ-1">
          <mxGeometry relative="1" as="geometry" />
        </mxCell>
        <mxCell id="9xBo_LbcZeyq5_pHZobQ-0" value="Begin" style="ellipse;whiteSpace=wrap;html=1;" vertex="1" parent="WIyWlLk6GJQsqaUBKTNV-1">
          <mxGeometry x="354" y="80" width="120" height="80" as="geometry" />
        </mxCell>
        <mxCell id="9xBo_LbcZeyq5_pHZobQ-46" value="" style="edgeStyle=orthogonalEdgeStyle;rounded=0;orthogonalLoop=1;jettySize=auto;html=1;" edge="1" parent="WIyWlLk6GJQsqaUBKTNV-1" source="9xBo_LbcZeyq5_pHZobQ-1" target="9xBo_LbcZeyq5_pHZobQ-6">
          <mxGeometry relative="1" as="geometry" />
        </mxCell>
        <mxCell id="9xBo_LbcZeyq5_pHZobQ-1" value="Input n, a1, a2, a3.. an" style="shape=parallelogram;perimeter=parallelogramPerimeter;whiteSpace=wrap;html=1;fixedSize=1;" vertex="1" parent="WIyWlLk6GJQsqaUBKTNV-1">
          <mxGeometry x="324" y="210" width="180" height="60" as="geometry" />
        </mxCell>
        <mxCell id="9xBo_LbcZeyq5_pHZobQ-8" value="" style="edgeStyle=orthogonalEdgeStyle;rounded=0;orthogonalLoop=1;jettySize=auto;html=1;" edge="1" parent="WIyWlLk6GJQsqaUBKTNV-1" source="9xBo_LbcZeyq5_pHZobQ-6" target="9xBo_LbcZeyq5_pHZobQ-7">
          <mxGeometry relative="1" as="geometry" />
        </mxCell>
        <mxCell id="9xBo_LbcZeyq5_pHZobQ-6" value="i = 0&lt;div&gt;a1 = max&lt;/div&gt;" style="whiteSpace=wrap;html=1;" vertex="1" parent="WIyWlLk6GJQsqaUBKTNV-1">
          <mxGeometry x="346" y="310" width="136" height="70" as="geometry" />
        </mxCell>
        <mxCell id="9xBo_LbcZeyq5_pHZobQ-7" value="i &amp;lt; n" style="rhombus;whiteSpace=wrap;html=1;" vertex="1" parent="WIyWlLk6GJQsqaUBKTNV-1">
          <mxGeometry x="354" y="440" width="120" height="80" as="geometry" />
        </mxCell>
        <mxCell id="9xBo_LbcZeyq5_pHZobQ-22" style="edgeStyle=orthogonalEdgeStyle;rounded=0;orthogonalLoop=1;jettySize=auto;html=1;entryX=0.5;entryY=0;entryDx=0;entryDy=0;" edge="1" parent="WIyWlLk6GJQsqaUBKTNV-1" source="9xBo_LbcZeyq5_pHZobQ-10" target="9xBo_LbcZeyq5_pHZobQ-21">
          <mxGeometry relative="1" as="geometry" />
        </mxCell>
        <mxCell id="9xBo_LbcZeyq5_pHZobQ-37" style="edgeStyle=orthogonalEdgeStyle;rounded=0;orthogonalLoop=1;jettySize=auto;html=1;entryX=0.5;entryY=0;entryDx=0;entryDy=0;" edge="1" parent="WIyWlLk6GJQsqaUBKTNV-1" source="9xBo_LbcZeyq5_pHZobQ-10" target="9xBo_LbcZeyq5_pHZobQ-14">
          <mxGeometry relative="1" as="geometry" />
        </mxCell>
        <mxCell id="9xBo_LbcZeyq5_pHZobQ-10" value="a1 &amp;gt; ai+1" style="rhombus;whiteSpace=wrap;html=1;" vertex="1" parent="WIyWlLk6GJQsqaUBKTNV-1">
          <mxGeometry x="75" y="505" width="120" height="80" as="geometry" />
        </mxCell>
        <mxCell id="9xBo_LbcZeyq5_pHZobQ-13" style="edgeStyle=orthogonalEdgeStyle;rounded=0;orthogonalLoop=1;jettySize=auto;html=1;entryX=0.5;entryY=0;entryDx=0;entryDy=0;" edge="1" parent="WIyWlLk6GJQsqaUBKTNV-1" source="9xBo_LbcZeyq5_pHZobQ-11" target="9xBo_LbcZeyq5_pHZobQ-10">
          <mxGeometry relative="1" as="geometry" />
        </mxCell>
        <mxCell id="9xBo_LbcZeyq5_pHZobQ-48" style="edgeStyle=orthogonalEdgeStyle;rounded=0;orthogonalLoop=1;jettySize=auto;html=1;entryX=0.5;entryY=0;entryDx=0;entryDy=0;" edge="1" parent="WIyWlLk6GJQsqaUBKTNV-1" source="9xBo_LbcZeyq5_pHZobQ-11" target="9xBo_LbcZeyq5_pHZobQ-47">
          <mxGeometry relative="1" as="geometry" />
        </mxCell>
        <mxCell id="9xBo_LbcZeyq5_pHZobQ-11" value="i &amp;lt; n" style="rhombus;whiteSpace=wrap;html=1;" vertex="1" parent="WIyWlLk6GJQsqaUBKTNV-1">
          <mxGeometry x="354" y="440" width="120" height="80" as="geometry" />
        </mxCell>
        <mxCell id="9xBo_LbcZeyq5_pHZobQ-14" value="max = a1" style="whiteSpace=wrap;html=1;" vertex="1" parent="WIyWlLk6GJQsqaUBKTNV-1">
          <mxGeometry x="-100" y="585" width="140" height="80" as="geometry" />
        </mxCell>
        <mxCell id="9xBo_LbcZeyq5_pHZobQ-15" style="edgeStyle=orthogonalEdgeStyle;rounded=0;orthogonalLoop=1;jettySize=auto;html=1;exitX=0;exitY=1;exitDx=0;exitDy=0;entryX=0.167;entryY=0.625;entryDx=0;entryDy=0;entryPerimeter=0;" edge="1" parent="WIyWlLk6GJQsqaUBKTNV-1" source="9xBo_LbcZeyq5_pHZobQ-10" target="9xBo_LbcZeyq5_pHZobQ-10">
          <mxGeometry relative="1" as="geometry" />
        </mxCell>
        <mxCell id="9xBo_LbcZeyq5_pHZobQ-18" value="True" style="text;html=1;align=center;verticalAlign=middle;resizable=0;points=[];autosize=1;strokeColor=none;fillColor=none;" vertex="1" parent="WIyWlLk6GJQsqaUBKTNV-1">
          <mxGeometry x="220" y="450" width="50" height="30" as="geometry" />
        </mxCell>
        <mxCell id="9xBo_LbcZeyq5_pHZobQ-24" value="" style="edgeStyle=orthogonalEdgeStyle;rounded=0;orthogonalLoop=1;jettySize=auto;html=1;" edge="1" parent="WIyWlLk6GJQsqaUBKTNV-1" source="9xBo_LbcZeyq5_pHZobQ-21" target="9xBo_LbcZeyq5_pHZobQ-23">
          <mxGeometry relative="1" as="geometry" />
        </mxCell>
        <mxCell id="9xBo_LbcZeyq5_pHZobQ-21" value="max = ai+1" style="whiteSpace=wrap;html=1;" vertex="1" parent="WIyWlLk6GJQsqaUBKTNV-1">
          <mxGeometry x="65" y="720" width="140" height="80" as="geometry" />
        </mxCell>
        <mxCell id="9xBo_LbcZeyq5_pHZobQ-39" style="edgeStyle=orthogonalEdgeStyle;rounded=0;orthogonalLoop=1;jettySize=auto;html=1;entryX=0.5;entryY=1;entryDx=0;entryDy=0;" edge="1" parent="WIyWlLk6GJQsqaUBKTNV-1" source="9xBo_LbcZeyq5_pHZobQ-23" target="9xBo_LbcZeyq5_pHZobQ-11">
          <mxGeometry relative="1" as="geometry" />
        </mxCell>
        <mxCell id="9xBo_LbcZeyq5_pHZobQ-23" value="i = i + 1&amp;nbsp;" style="whiteSpace=wrap;html=1;" vertex="1" parent="WIyWlLk6GJQsqaUBKTNV-1">
          <mxGeometry x="210" y="570" width="136" height="80" as="geometry" />
        </mxCell>
        <mxCell id="9xBo_LbcZeyq5_pHZobQ-33" value="End&amp;nbsp;" style="ellipse;whiteSpace=wrap;html=1;" vertex="1" parent="WIyWlLk6GJQsqaUBKTNV-1">
          <mxGeometry x="500" y="720" width="120" height="80" as="geometry" />
        </mxCell>
        <mxCell id="9xBo_LbcZeyq5_pHZobQ-38" value="True" style="text;html=1;align=center;verticalAlign=middle;resizable=0;points=[];autosize=1;strokeColor=none;fillColor=none;" vertex="1" parent="WIyWlLk6GJQsqaUBKTNV-1">
          <mxGeometry y="520" width="50" height="30" as="geometry" />
        </mxCell>
        <mxCell id="9xBo_LbcZeyq5_pHZobQ-43" value="False" style="text;strokeColor=none;align=center;fillColor=none;html=1;verticalAlign=middle;whiteSpace=wrap;rounded=0;" vertex="1" parent="WIyWlLk6GJQsqaUBKTNV-1">
          <mxGeometry x="80" y="620" width="60" height="30" as="geometry" />
        </mxCell>
        <mxCell id="9xBo_LbcZeyq5_pHZobQ-44" value="False" style="text;strokeColor=none;align=center;fillColor=none;html=1;verticalAlign=middle;whiteSpace=wrap;rounded=0;" vertex="1" parent="WIyWlLk6GJQsqaUBKTNV-1">
          <mxGeometry x="520" y="450" width="60" height="30" as="geometry" />
        </mxCell>
        <mxCell id="9xBo_LbcZeyq5_pHZobQ-49" style="edgeStyle=orthogonalEdgeStyle;rounded=0;orthogonalLoop=1;jettySize=auto;html=1;entryX=0.5;entryY=0;entryDx=0;entryDy=0;" edge="1" parent="WIyWlLk6GJQsqaUBKTNV-1" source="9xBo_LbcZeyq5_pHZobQ-47" target="9xBo_LbcZeyq5_pHZobQ-33">
          <mxGeometry relative="1" as="geometry" />
        </mxCell>
        <mxCell id="9xBo_LbcZeyq5_pHZobQ-47" value="Output max&amp;nbsp;" style="shape=parallelogram;perimeter=parallelogramPerimeter;whiteSpace=wrap;html=1;fixedSize=1;" vertex="1" parent="WIyWlLk6GJQsqaUBKTNV-1">
          <mxGeometry x="504" y="585" width="146" height="55" as="geometry" />
        </mxCell>
      </root>
    </mxGraphModel>
  </diagram>
</mxfile>
